<svg viewBox="130.915 57.55 184.4 206.285" width="184.4" height="206.285"
     xmlns="http://www.w3.org/2000/svg">
    <style type="text/css">
        path:not(.nocolor) {
        cursor: pointer;
        }
    </style>
    <path style="fill:#fff;stroke:#000000;stroke-width:0.218942;stroke-miterlimit:4;stroke-dasharray:none;stroke-opacity:1"
          d="M 235.636 57.55 C 236.253 59.163 236.726 60.83 237.286 62.465 C 237.914 64.305 238.466 66.175 239.14 67.999 C 243.453 67.919 247.778 68.294 251.989 69.245 C 254.246 66.014 256.449 62.74 258.709 59.508 C 258.863 63.563 259.031 67.617 259.196 71.673 C 260.444 72.229 261.667 72.839 262.903 73.421 C 266.232 70.143 269.473 66.774 272.811 63.507 C 272.528 66.665 272.153 69.814 271.843 72.968 C 271.693 74.563 271.459 76.152 271.376 77.753 C 275.291 79.654 278.993 82.045 282.178 85.023 C 282.325 85.209 282.558 85.111 282.739 85.037 C 287.24 83.085 291.744 81.14 296.246 79.192 C 296.752 78.975 297.249 78.732 297.776 78.565 C 297.392 79.312 296.892 79.989 296.454 80.7 C 294.862 83.186 293.269 85.671 291.676 88.155 C 290.659 89.774 289.586 91.357 288.603 92.994 C 289.187 93.864 289.625 94.832 290.372 95.584 C 294.387 95.354 298.393 94.985 302.407 94.747 C 300.403 97.79 298.289 100.762 296.264 103.79 C 296.134 103.937 296.2 104.129 296.288 104.278 C 297.569 106.525 298.715 108.859 299.609 111.288 C 299.668 111.476 299.925 111.408 300.077 111.438 C 303.646 111.439 307.214 111.432 310.783 111.442 C 308.094 113.409 305.357 115.313 302.677 117.294 C 302.736 117.324 302.854 117.384 302.913 117.414 C 302.408 117.382 301.983 117.705 301.66 118.057 C 301.812 119.076 302.076 120.08 302.22 121.103 C 302.456 122.533 302.602 123.975 302.73 125.416 C 304.073 125.891 305.465 126.219 306.828 126.635 C 309.133 127.321 311.466 127.927 313.754 128.668 C 310.944 129.649 308.136 130.633 305.326 131.616 C 304.516 131.924 303.674 132.151 302.884 132.502 C 302.67 132.867 302.786 133.342 302.735 133.751 C 306.109 135.638 309.529 137.442 312.92 139.297 C 313.714 139.752 314.553 140.127 315.315 140.638 C 310.607 141.17 305.896 141.673 301.19 142.226 C 300.397 144.906 299.409 147.527 298.253 150.073 C 297.743 151.247 297.144 152.38 296.627 153.55 C 298.977 156.144 301.372 158.7 303.745 161.277 C 300.87 160.752 297.998 160.206 295.124 159.676 C 294.54 159.573 293.962 159.421 293.367 159.401 C 292.714 160.721 292.005 162.013 291.292 163.303 C 291.001 163.867 290.615 164.381 290.372 164.969 C 290.583 165.562 291.027 166.04 291.339 166.584 C 293.869 170.473 296.084 174.576 297.801 178.891 C 299.765 183.807 301.299 188.896 302.339 194.087 C 303.298 199.044 303.855 204.164 303.08 209.187 C 302.482 213.084 300.773 216.771 298.313 219.838 C 296.589 222.001 294.555 223.895 292.436 225.663 C 293.138 226.569 293.925 227.431 294.398 228.49 C 294.927 229.571 294.964 230.837 294.683 231.994 C 294.293 233.565 293.475 234.986 292.604 236.336 C 291.259 238.359 289.898 240.372 288.607 242.429 C 287.331 244.447 286.167 246.535 284.842 248.521 C 283.712 250.195 282.496 251.882 280.814 253.044 C 279.358 254.059 277.593 254.492 275.858 254.718 C 274.533 254.658 273.174 254.482 271.973 253.882 C 270.752 253.281 269.627 252.434 268.826 251.325 C 268.326 250.62 268.038 249.786 267.897 248.94 C 267.84 248.71 267.845 248.37 267.538 248.343 C 266.481 248.067 265.467 247.649 264.53 247.087 C 264.116 248.151 263.705 249.255 262.914 250.108 C 261.215 252.063 258.575 252.823 256.095 253.159 C 255.348 254.916 254.622 256.707 253.493 258.263 C 252.358 259.858 250.832 261.179 249.068 262.032 C 246.923 263.102 244.531 263.574 242.156 263.747 C 239.363 263.856 236.554 263.919 233.772 263.591 C 233.463 263.559 233.154 263.537 232.846 263.513 C 230.609 263.248 228.383 262.782 226.255 262.037 C 224.366 261.344 222.534 260.351 221.176 258.836 C 220.153 257.708 219.456 256.313 219.016 254.862 C 218.791 254.169 218.749 253.431 218.52 252.743 C 218.247 252.394 217.811 252.231 217.456 251.987 C 215.559 250.78 213.638 249.487 212.312 247.636 C 211.052 245.876 210.527 243.697 210.454 241.56 C 210.317 240.678 210.503 239.764 210.229 238.903 C 210.118 238.497 210.017 238.088 209.958 237.674 C 209.588 234.906 209.773 232.102 210.021 229.332 C 210.199 227.436 210.442 225.547 210.672 223.656 C 210.761 222.836 210.741 222.009 210.723 221.187 C 210.858 219.533 210.69 217.868 210.575 216.217 C 210.508 215.772 210.491 215.322 210.51 214.873 C 210.532 214.527 210.515 214.182 210.449 213.843 C 210.2 211.421 209.985 208.992 209.577 206.589 C 209.041 203.384 208.359 200.193 207.372 197.096 C 202.962 199.023 198.559 200.977 194.025 202.594 C 189.32 204.276 184.485 205.667 179.526 206.342 C 176.487 206.728 173.375 206.801 170.361 206.193 C 166.804 205.499 163.436 203.676 161.087 200.89 C 158.552 197.897 157.077 194.183 155.944 190.472 C 155.103 187.725 154.521 184.909 153.951 182.097 C 153.399 180.425 152.974 178.713 152.703 176.973 C 152.529 175.685 152.134 174.442 151.897 173.166 C 151.429 170.868 151.121 168.542 150.871 166.211 C 149.965 166.034 149.051 165.908 148.142 165.761 C 147.795 165.736 147.591 165.429 147.33 165.244 C 146.684 164.742 146.104 164.14 145.712 163.417 C 145.021 162.164 144.697 160.752 144.397 159.365 C 144.329 158.867 143.762 158.741 143.433 158.452 C 141.688 157.099 139.795 155.761 138.752 153.752 C 137.492 151.242 136.175 148.762 135.026 146.199 C 133.766 143.338 132.46 140.475 131.676 137.439 C 131.211 135.637 130.688 133.762 131.02 131.892 C 131.283 130.949 131.686 130.016 132.357 129.288 C 133.003 128.583 133.74 127.965 134.521 127.417 C 135.415 126.757 136.542 126.474 137.642 126.451 C 138.252 126.433 138.866 126.288 139.474 126.414 C 139.802 126.474 140.099 126.633 140.396 126.778 C 140.746 126.16 141.115 125.516 141.716 125.106 C 142.896 124.24 144.419 124.155 145.828 124.091 C 146.444 124.098 147.06 124.039 147.663 123.913 C 148.061 123.526 148.39 123.063 148.863 122.756 C 150.717 121.487 153.107 121.248 155.28 121.607 C 154.989 119.087 154.613 116.566 154.634 114.021 C 154.619 112.304 154.764 110.583 155.103 108.899 C 155.356 107.747 155.493 106.564 155.913 105.457 C 156.263 104.43 156.88 103.532 157.48 102.639 C 157.951 101.966 158.569 101.351 159.361 101.079 C 159.992 100.866 160.692 101.001 161.27 101.307 C 161.864 101.622 162.499 101.864 163.047 102.261 C 164.157 103.052 165.034 104.125 165.703 105.306 C 166.961 107.046 167.711 109.095 168.153 111.183 C 168.148 111.383 168.327 111.458 168.504 111.436 C 170.682 111.44 172.86 111.436 175.039 111.437 C 175.706 111.431 176.374 111.466 177.04 111.399 C 178.35 106.832 180.061 102.365 182.37 98.207 C 182.479 98.03 182.55 97.823 182.372 97.663 C 180.017 94.675 177.619 91.72 175.273 88.723 C 178.929 89.74 182.567 90.825 186.217 91.861 C 186.399 91.952 186.577 91.881 186.695 91.728 C 188.07 90.21 189.32 88.563 190.918 87.264 C 192.339 85.944 193.835 84.706 195.411 83.574 C 195.541 83.444 195.84 83.3 195.697 83.079 C 193.815 79.607 191.869 76.168 190 72.689 C 194.01 74.796 197.965 77.012 201.965 79.141 C 202.219 79.301 202.484 79.115 202.713 79.002 C 204.796 77.841 206.937 76.79 209.084 75.753 C 210.541 75.067 212.017 74.416 213.436 73.65 C 213.224 69.996 212.901 66.349 212.688 62.696 C 214.345 64.412 215.933 66.195 217.56 67.939 C 218.455 68.872 219.284 69.874 220.215 70.767 C 220.672 70.751 221.088 70.527 221.526 70.415 C 224.955 69.432 228.479 68.793 232.025 68.425 C 233.262 64.811 234.397 61.162 235.636 57.55"
          id="path2-59-3"></path>
    <path style="fill:#fff;stroke:#000000;stroke-width:0.218942;stroke-miterlimit:4;stroke-dasharray:none;stroke-opacity:1"
          d="M97.871887 236.13916c-.312342.36574-.545077.87883-.383564 1.36326.219708.66983.660284 1.23503.977268 1.85971.489225.99984 1.372829 1.72423 2.227779 2.40479 2.57212 1.86678 5.76298 2.55082 8.84817 3.01745 3.21575.44419 6.48503.5772 9.7186.25054 1.96651-.21019 3.93304-.63655 5.72501-1.49266 1.71239-.78854 3.22893-1.94873 4.57439-3.25859.77072-.77072 1.51771-1.69109 1.58297-2.82871-.52611-.14362-1.0664-.007-1.58413.0985-2.53895.60686-5.09558 1.1638-7.69041 1.46544-5.32251.59847-10.73159.17822-15.96379-.91316-2.54244-.52842-5.03625-1.25399-7.524107-1.98795-.162674-.0263-.384593-.14735-.508186.0219z"
          id="path16519" transform="matrix(1, 0, 0, 1, 122.522163, 17.639925)"></path>
    <path style="fill:#fff;stroke:#000000;stroke-width:0.218942;stroke-miterlimit:4;stroke-dasharray:none;stroke-opacity:1"
          d="M91.301363 222.25115c-.04642.55578-.02189 1.1162-.08429 1.67317-.09633.57113.233896 1.07942.440576 1.58774.801546 1.82989 1.904727 3.5744 3.472348 4.84157 1.614979 1.34662 3.567303 2.22068 5.559883 2.84766 2.69443.8253 5.49115 1.25517 8.28657 1.56519 3.07088.30277 6.15852.44419 9.24487.36213.94761.0109 1.90241-.0368 2.84292-.13662 1.0664.0131 2.1292-.14954 3.18969-.25169 1.78836-.19946 3.56846-.50239 5.31181-.95122 2.00213-.52366 3.98776-1.29915 5.61099-2.61379 1.65069-1.30145 2.76214-3.20633 3.30011-5.22149-.095-.2161-.24706-.39775-.37529-.59023-1.13401.85031-2.3097 1.65188-3.55905 2.32403-2.67196 1.46776-5.62763 2.38696-8.6416 2.81683-.99752.1699-2.01286.19836-3.01038.35749-.60325-.011-1.21478-.004-1.80745.11035-1.40843-.0285-2.82509.009-4.237-.0225-.74699-.12108-1.51177-.0403-2.26108-.14845-1.56994-.0937-3.13498-.25892-4.69306-.46908-4.73938-.66854-9.55128-1.74321-13.686098-4.25841-1.793131-1.05804-3.370189-2.42607-4.9044-3.82263"
          id="path16517" transform="matrix(1, 0, 0, 1, 122.522163, 17.639925)"></path>
    <path style="fill:#fff;stroke:#000000;stroke-width:0.218942;stroke-miterlimit:4;stroke-dasharray:none;stroke-opacity:1"
          d="M90.682743 216.5505c-.09042.62584-.104435 1.26355-.07378 1.89533 1.265877 1.79675 2.8037 3.41531 4.569595 4.73111 1.42623 1.07713 3.032954 1.88822 4.688306 2.54837 2.709906 1.07829 5.540926 1.82166 8.393386 2.41666 2.3631.49877 4.77021.79563 7.18093.91316 1.30986.0475 2.62089.12239 3.93191.11034.7173-.0642 1.43691-.0427 2.15539-.0937.56172.007 1.13053-.0333 1.68386-.1329.18413.009.36938.004.55694-.007 2.44632-.25649 4.89022-.71254 7.19035-1.60788 2.21232-.83483 4.27146-2.04844 6.1335-3.5032-.45838-.79213-.88116-1.6067-1.22665-2.45458-2.91063 1.73019-6.01364 3.17899-9.30188 4.02209-1.13287.31825-2.30145.4714-3.44735.72671-.6626.004-1.31216.16618-1.97128.2268-.52728.0843-1.05688.14232-1.58054.23751-3.65168.4002-7.35431.15436-10.95363-.55217-4.62663-.92036-9.186673-2.58642-12.98428-5.44004-1.683989-1.30161-3.377393-2.59365-4.944883-4.03639"
          id="path16515" transform="matrix(1, 0, 0, 1, 122.522163, 17.639925)"></path>
    <path style="fill:#fff;stroke:#000000;stroke-width:0.218942;stroke-miterlimit:4;stroke-dasharray:none;stroke-opacity:1"
          d="M90.821246 211.33246c-.02255.90852-.124578 1.81457-.09502 2.72539 1.644646 1.62684 3.363096 3.20517 5.327155 4.44136.923868.60804 1.936867 1.05933 2.867807 1.65664 3.418812 2.04021 7.248672 3.33689 11.172192 3.96506 2.56269.42161 5.16446.62932 7.76277.55462 1.21362.0175 2.42491-.11166 3.63259-.22087.98088-.1329 1.98434-.21259 2.93669-.48572.53437-.0451 1.04978-.19968 1.56751-.32898 2.68383-.68286 5.24884-1.77895 7.66666-3.12082.67331-.3158 1.25398-.79922 1.70411-1.38815.0523-.43465.0808-.88.26126-1.28497.34085-.90373 1.11505-1.52116 1.71004-2.25035-.0725-.21719-.14713-.43219-.22332-.64364-1.59716 1.00706-3.25612 1.91543-4.9698 2.7099-1.938.87999-3.92001 1.72785-6.02665 2.10909l-.0197.0486c-.70298.0891-1.39538.2517-2.09709.34795-1.4226.21609-2.85721.34562-4.28924.46547-3.20272.19354-6.42688.21719-9.61773-.14845-2.77763-.29929-5.52313-.9774-8.07396-2.12688-1.68037-.76595-3.302444-1.65781-4.900893-2.58165-2.221841-1.29787-4.260756-2.87608-6.296168-4.44358"
          id="path16513" transform="matrix(1, 0, 0, 1, 122.522163, 17.639925)"></path>
    <path style="fill:#fff;stroke:#000000;stroke-width:0.218942;stroke-miterlimit:4;stroke-dasharray:none;stroke-opacity:1"
          d="M91.713192 205.27023c-.199456 1.23271-.400203 2.46529-.631778 3.69206-.03678.14844.01095.26485.147129.35026 3.236 2.65055 6.650044 5.16577 10.517817 6.81881 2.26933.99042 4.66572 1.66721 7.09656 2.12327 2.92252.54508 5.8996.78374 8.87191.72673 1.34662-.0197 2.69092-.12589 4.02683-.28151.54147-.083 1.11621-.0808 1.63046-.27311.76117-.0285 1.49627-.25417 2.23603-.41207 3.8167-.91082 7.38878-2.63752 10.69484-4.72159.12348-1.04021.0819-2.10908.31582-3.14091-2.1185.9654-4.29404 1.81093-6.52181 2.48786-2.20765.69229-4.47698 1.15544-6.74397 1.60079-.76478.0808-1.5355.19004-2.28829.35619-.16749-.044-.34085.001-.50586.0153-2.88445.36574-5.7974.4251-8.69978.30396-2.79893-.24112-5.61692-.67693-8.24735-1.70295-2.57095-.96902-4.956643-2.37861-7.157203-4.015-1.662314-1.20871-3.177565-2.60166-4.741443-3.927"
          id="path16511" transform="matrix(1, 0, 0, 1, 122.522163, 17.639925)"></path>
    <path style="fill:#fff;stroke:#000000;stroke-width:0.218942;stroke-miterlimit:4;stroke-dasharray:none;stroke-opacity:1"
          d="M141.98516 205.67965c-1.38584.80516-2.76331 1.82164-3.46642 3.30723-.63294 1.23257-.76478 2.64343-.8253 4.00671.0153.4251.0451.87884.25765 1.25993.27904.35155.82412.4358 1.2291.27429.80515-.25895 1.6578-.30873 2.49729-.34563.0175-.60327.12589-1.19581.24705-1.7836.23867.0451.47618.0926.7173.14253-.0891.54275-.22319 1.08422-.215 1.63871.007.59257.11407 1.18756.0219 1.7801-.0652.48214-.2624.93226-.47618 1.36561-.2185-.10684-.4358-.20909-.65319-.30873.23274-.49514.42626-1.01532.44535-1.56749-.49049-.0344-1.00461-.14012-1.47485.0593-.66506.23751-1.38934.42987-1.90834.93817-.50948.52843-.95005 1.15428-1.10202 1.88576-.39788 1.45347.11407 2.95219.77188 4.24657.89895 1.74567 2.03541 3.38088 3.40344 4.79163 1.10435 1.15905 2.56388 2.01879 4.16697 2.22661.39181.0392.87276-.0534 1.17685.26126.28265.33247.15917.79445.11516 1.18756-.0902.52726.1283 1.05686.41207 1.49266.41566.57242.9868 1.00577 1.55331 1.41784.90127.62469 1.88344 1.15542 2.94507 1.45229 1.18033.31943 2.5187.14253 3.52925-.56765 1.92023-1.22316 3.91294-2.46167 5.32367-4.28927 1.39063-1.86203 2.11259-4.10528 3.28826-6.0931 1.0534-1.83004 2.39409-3.46641 3.68135-5.13131-.76826-.14231-1.55446-.0749-2.32273-.20318-1.80977-.23041-3.50794-1.02952-4.95675-2.11968-1.82643-1.35617-3.41533-3.01397-4.8106-4.80465-1.1864-1.57342-2.29436-3.30967-2.60657-5.29039-.0915-1.21014-.65319-2.36674-.47979-3.59816-.82052-.0593-1.64709-.095-2.46876-.0427-2.79221.27893-5.56379 1.02708-8.01604 2.41059"
          id="path16509" transform="matrix(1, 0, 0, 1, 122.522163, 17.639925)"></path>
    <path style="fill:#fff;stroke:#000000;stroke-width:0.218942;stroke-miterlimit:4;stroke-dasharray:none;stroke-opacity:1"
          d="M156.14402 202.04343c-.28265.076-.56881.1769-.77072.39902-.37645.37286-.80038.71732-1.07465 1.17918-.27906.61745-.3206 1.32534-.18763 1.98678.14121.78852.25053 1.59961.57113 2.34182.0843.58313.37763 1.11389.6163 1.64826.91081 1.80022 2.19578 3.41172 3.68844 4.7608.56881.59372 1.22432 1.0984 1.88576 1.58776.54392.38122 1.09377.76476 1.69575 1.05337.56056.285 1.1353.58545 1.75392.7208 1.33476.48327 2.76808.67447 4.18242.74219.72789-1.09841 1.43926-2.22184 1.93093-3.44977.14713-.41439.33376-.83717.34562-1.28018-.17931-.99636-.59615-1.94757-1.12936-2.80254-.15195-.44651-.45361-.82411-.68518-1.23025-.12348-.20668-.24824-.41207-.36692-.61746-.44535.34085-.9156.65551-1.32405 1.04024-.65551.43348-1.27063.92629-1.89532 1.40363-.49993.27429-.82295.75292-1.24805 1.11391-.78142.43941-1.64-.051-2.36906-.36099-.31118-.26008-.64957-.48327-.96424-.73381-1.35733-1.17453-2.47483-2.65882-3.02584-4.38189-.0175-.49877-.16157-1.03792.10926-1.49629.2553-.41205.61745-.74103.90488-1.12937.41568-.46547.81227-.94642 1.21723-1.4203.2672-.31711.53682-.63291.80273-.95119-1.507-.40872-3.15294-.62843-4.66342-.1237"
          id="path16507" transform="matrix(1, 0, 0, 1, 122.522163, 17.639925)"></path>
    <path style="fill:#fff;stroke:#000000;stroke-width:0.218942;stroke-miterlimit:4;stroke-dasharray:none;stroke-opacity:1"
          d="M91.851673 199.03563c.01314 1.13287.172307 2.26108.108157 3.39508.01314.22565-.08911.52135.131802.68041 2.924819 2.73957 6.000467 5.39489 9.573698 7.25809 2.1589 1.1353 4.49595 1.9273 6.90306 2.3275 3.10415.53682 6.27966.595 9.4158.3384.75769-.0237 1.51409-.13181 2.26933-.215.83598-.0904 1.66722-.22319 2.4974-.35749.595-.1329 1.23141-.14494 1.79906-.37284.52844-.0109 1.03547-.18632 1.55215-.28861 3.68485-.83484 7.26054-2.11502 10.66749-3.74547.42393-.22681.96076-.34085 1.21477-.79084.44535-.68995 1.02358-1.27775 1.5426-1.90834.10816-.56883.0676-1.15428.1248-1.72787.0631-.60093.11406-1.2042.11998-1.80745-1.57588.70182-3.12673 1.46299-4.70972 2.14817-2.62435 1.14601-5.30342 2.17437-8.05368 2.9736-1.00348.30641-2.03659.50109-3.04366.79084-.59848.0604-1.19582.19113-1.77894.33969-.3788-.0175-.74815.0985-1.12099.1364-.46908.0891-.95482.0749-1.4132.21259-.49513-.0344-.98797.0582-1.47847.0974-.78735.0534-1.57705.0333-2.36196.0985-.68879.0534-1.37397-.0843-2.06031-.025-3.33343-.13771-6.67509-.64119-9.83857-1.729-2.67663-.91445-5.178804-2.29668-7.451746-3.97228-1.63291-1.16821-3.094739-2.54568-4.60883-3.85681"
          id="path16505" transform="matrix(1, 0, 0, 1, 122.522163, 17.639925)"></path>
    <path style="fill:#fff;stroke:#000000;stroke-width:0.218942;stroke-miterlimit:4;stroke-dasharray:none;stroke-opacity:1"
          d="M150.76215 166.24119c-.7564.55695-1.2789 1.3514-1.83585 2.09244-.75175 1.03082-1.38585 2.14703-1.89763 3.31547 3.92118 2.84885 7.86611 5.66687 11.80743 8.48719-.65319-2.11734-1.37992-4.21095-2.06278-6.31874-.25646-.87638-.61627-1.72078-.80631-2.61495-.89057-2.42259-1.64233-4.89613-2.46529-7.34245-.88581.82542-1.77651 1.64722-2.73957 2.38104"
          id="path16503" transform="matrix(1, 0, 0, 1, 122.522163, 17.639925)"></path>
    <path style="fill:#fff;stroke:#000000;stroke-width:0.218942;stroke-miterlimit:4;stroke-dasharray:none;stroke-opacity:1"
          d="M73.534319 161.46736c-.840779 2.53419-1.674465 5.06953-2.504516 7.60603 2.549662-1.19581 5.079072-2.43316 7.594164-3.70032-1.328822-2.17075-2.771691-4.26797-4.275075-6.3212-.311051.79098-.556944 1.60569-.814573 2.41549"
          id="path16501" transform="matrix(1, 0, 0, 1, 122.522163, 17.639925)"></path>
    <path class="nocolor" style="fill:#fff; stroke-width: 0.218942; stroke-miterlimit: 4; stroke-dasharray: none; stroke-opacity: 1; paint-order: fill; stroke: rgb(0, 0, 0);"
          d="M156.23295 161.14681c-.79561.82529-1.66128 1.59123-2.40827 2.45819.61992 2.03426 1.34188 4.03872 1.97247 6.07066.22319.95237.6519 1.83713.92039 2.77646.92978 2.87503 1.91788 5.73329 2.81322 8.62019-2.52825-1.74567-4.99714-3.57917-7.50269-5.35812-1.7338-1.21838-3.41881-2.50929-5.18357-3.68253-1.6471 3.87722-2.43446 8.04545-3.09113 12.18752-.23157 1.59122-.51655 3.17896-.56055 4.79046-.011 1.45951-.16377 2.91179-.1756 4.37364-.0725.2339-.11166.47734-.10815.72555-.0808 3.0127.12107 6.0219.23157 9.0311.0891-.0131.18041-.0225.27311-.0309 2.09593-.85497 4.33209-1.40482 6.5978-1.51525 1.10319-.0593 2.20521.069 3.30607.11998.28615-.13531.46547-.42626.71845-.61396.88593-.75523 2.09361-.95598 3.223-.99519 1.60309-.0499 3.21343.16749 4.75007.62943.87289-.98086 1.70052-1.99981 2.55677-2.99488.45954-.57126 1.00707-1.08422 1.34185-1.74566.66029-1.26831 1.20769-2.59945 1.56995-3.98415.64119-2.40477.76478-4.91392.72557-7.3911-.22799-2.97835-.7386-5.92808-1.39179-8.83989-1.43448-6.20599-3.52925-12.37868-7.19641-17.64418-1.10318 1.03055-2.25631 2.00549-3.38206 3.01256"
          id="path16499" transform="matrix(1, 0, 0, 1, 122.522163, 17.639925)"></path>
    <path style="fill:#fff;stroke:#000000;stroke-width:0.218942;stroke-miterlimit:4;stroke-dasharray:none;stroke-opacity:1"
          d="M61.846671 150.83798c-1.502224 2.2052-3.038888 4.3855-4.516196 6.60618 4.114701-1.41913 8.223599-2.86071 12.327593-4.31428-1.679085-2.06742-3.435456-4.06969-5.169232-6.09079-.926189 1.23387-1.75624 2.53651-2.642165 3.79889"
          id="path16497" transform="matrix(1, 0, 0, 1, 122.522163, 17.639925)"></path>
    <path style="fill:#fff;stroke:#000000;stroke-width:0.218942;stroke-miterlimit:4;stroke-dasharray:none;stroke-opacity:1"
          d="M173.85342 136.30156c-.48097 1.06048-1.03908 2.0829-1.56752 3.11964-.13771.25415-.25414.53204-.47385.72917-.36458.29686-.50946.75885-.72916 1.15788 2.97114.59733 5.95661 1.13995 8.94078 1.67316-.71254-.83484-1.4821-1.61626-2.21707-2.42968-1.32289-1.41204-2.6054-2.86316-3.95318-4.25017"
          id="path16495" transform="matrix(1, 0, 0, 1, 122.522163, 17.639925)"></path>
    <path style="fill:#fff;stroke:#000000;stroke-width:0.218942;stroke-miterlimit:4;stroke-dasharray:none;stroke-opacity:1"
          d="M42.525427 136.27903c-.529598.42032-1.176855.69357-1.613819 1.22316-.321756.3575-.682857.68403-.966692 1.07584-.355036.21493-.611504.56287-.938165.81935-.708911.6519-1.514091 1.18162-2.304929 1.72553-.46431.19714-.893019.47386-1.360941.66622-.351555.16631-.736279.26125-1.074675.45606-1.224321.35504-2.437936.78736-3.719292.89663l-.03437.038c-.68995.0107-1.377449.0689-2.067421.0605-.516549-.0285-1.03196-.057-1.543757-.12824l-.06765.0522c-.551011-.18759-1.130549-.25763-1.70052-.35865-.755239-.27905-1.540276-.47979-2.270468-.82529.14494.54508.298002 1.09015.479789 1.62452.11998.35504.242281.71008.375288 1.06048.11998.25764.23869.51656.364603.77304.11998.19945.238668.40019.356196.60442.211279.25893.441737.50353.68763.73266.223189.1401.446509.35865.733958.31118.439416.089.879992.19352 1.328822.21609.464309.0915.926298.20191 1.397701.24577.589084.19829 1.206521.0523 1.806181-.005 2.699177-.37878 5.35334-1.13762 7.822125-2.29667 1.501042-.73975 3.023386-1.61032 4.044639-2.96998.279063-.28383.499932-.63771.647257-1.00578.224481-.36691.386016-.76956.486905-1.18626.110346-.30641.207775-.61991.244601-.94295.06897-.27428.123483-.55334.13662-.83368.106843-.64596.136619-1.30147.124577-1.9535.04751-.43231.0088-.86928-.02189-1.30031.04029-.28382.0022-.57113-.02189-.8538-.416843.71008-.840779 1.41552-1.331274 2.07813"
          id="path16493" transform="matrix(1, 0, 0, 1, 122.522163, 17.639925)"></path>
    <path style="fill:#fff;stroke:#000000;stroke-width:0.218942;stroke-miterlimit:4;stroke-dasharray:none;stroke-opacity:1"
          d="M46.6805 138.68498c3.640977-.19353 7.279501-.43581 10.919186-.65319-1.763465-2.67313-3.164779-5.58841-4.153913-8.63322-2.277584 3.07925-4.500585 6.1976-6.765273 9.28641"
          id="path16491" transform="matrix(1, 0, 0, 1, 122.522163, 17.639925)"></path>
    <path style="fill:#fff;stroke:#000000;stroke-width:0.218942;stroke-miterlimit:4;stroke-dasharray:none;stroke-opacity:1"
          d="M31.496967 123.93001c.599637-.23158 1.201749-.46909 1.849006-.52843-.223189-.0938-.450122-.17689-.672151-.2708-.371697.29699-.783767.5345-1.176855.79923"
          id="path16489" transform="matrix(1, 0, 0, 1, 122.522163, 17.639925)"></path>
    <path class="nocolor" style="fill:#fff; stroke-width: 0.218942; stroke-miterlimit: 4; stroke-dasharray: none; stroke-opacity: 1; stroke: rgb(0, 0, 0);"
          d="M45.375564 118.3369c.141218.41683.308708.82413.44651 1.24329.631756 1.85248.700657 3.84997.469082 5.78089-.293382 2.45342-.937026 4.85692-1.797904 7.17023-.155668.33607 0 .69473.05824 1.03545.612818 2.72176.499931 5.67046-.629435 8.24618-.489225 1.13647-1.403656 2.0211-2.417816 2.69919.03437.82181.122389 1.64.191136 2.46052.09634.81935.102246 1.66722.413231 2.44503 2.122113 6.03376 4.153934 12.12338 6.943425 17.89112 1.022414 2.06148 2.136301 4.10168 3.606537 5.88411.300454.3242.558104.72555.960738.93339 1.034302.3135 2.142256.22912 3.201561.10443 2.182628-.30757 4.285781-1.0117 6.34843-1.76824 2.402336-.90256 4.74893-1.94277 7.080045-3.01396.194858-.0797.363421-.21501.406115-.42987 1.058035-3.21588 2.110268-6.43396 3.176667-9.64739.08561-.31117.287317-.69228.02627-.97133-1.286107-1.62568-2.506816-3.31083-3.883126-4.86168-.707751.0949-1.357328.43941-2.038894.6448-3.885578 1.34662-7.755698 2.73724-11.649531 4.05652 2.586445-3.86417 5.273756-7.66305 7.872045-11.52012-.191136-.31582-.381221-.63409-.62105-.91315-1.968854-2.29073-3.865326-4.64907-5.557569-7.15358-.102246-.23867-.377631-.18888-.585472-.19004-3.847526.22203-7.692709.47734-11.541527.6875 2.39406-3.35237 4.845046-6.66553 7.24736-10.01081.206681-.26009.05824-.59616-.01095-.87638-.895339-2.85-1.301454-5.82476-1.574584-8.78997-2.045089-.38807-4.088778-.78232-6.139669-1.1362"
          id="path16487" transform="matrix(1, 0, 0, 1, 122.522163, 17.639925)"></path>
    <path style="fill:#fff;stroke:#000000;stroke-width:0.218942;stroke-miterlimit:4;stroke-dasharray:none;stroke-opacity:1"
          d="M180.13163 116.57459c-.19945 2.5556-.70416 5.08256-1.36444 7.55856 4.24063-.44768 8.47763-.92631 12.71232-1.41436-3.77747-2.05671-7.55507-4.11703-11.34788-6.1442"
          id="path16485" transform="matrix(1, 0, 0, 1, 122.522163, 17.639925)"></path>
    <path style="fill:#fff;stroke:#000000;stroke-width:0.218942;stroke-miterlimit:4;stroke-dasharray:none;stroke-opacity:1"
          d="M45.310188 117.55431c-.268334.0308-.178218.38833.07006.34795 2.046118.37762 4.087486.78013 6.138246 1.13053-.09633-1.3692-.142531-2.74202-.110347-4.11471-2.036572.87045-4.068394 1.7516-6.097873 2.63623"
          id="path16483" transform="matrix(1, 0, 0, 1, 122.522163, 17.639925)"></path>
    <path style="fill:#fff;stroke:#000000;stroke-width:0.218942;stroke-miterlimit:4;stroke-dasharray:none;stroke-opacity:1"
          d="M30.165277 110.28544c-.890698.15674-1.653031.81935-1.945121 1.67444-.510615 1.44042-.356196 3.00443-.267174 4.50071-.0012.65551.427549 1.19582.741051 1.73857.635369 1.11866 1.334756 2.32041 2.521134 2.92844 1.207682.64958 2.467625 1.19697 3.733611 1.72308.317115.1294.751758.253.771879.66738.01314.27428.166395.67564-.104435.86335-.974947.0653-1.993879-.21855-2.936686.1401-.863352.31234-1.720771.76117-2.310862 1.48441-1.079448 1.5675-1.605565 3.43069-1.962921 5.27969-.01751.24822-.239829.39658-.41207.54507-.30989.18295-.697044-.18049-.606862-.50585.224481-.78143.227962-1.60556.43346-2.39163.399043-1.90602 1.432163-3.81785 3.190855-4.77615-1.162514.45245-2.537664.91444-3.69915.19482-.212592-.1805-.452442-.32653-.675631-.49167-.32769.43464-.72196.8111-1.126936 1.1744-.358649.20307-.68763.45722-1.053372.65074-.644805.33839-1.334756.57719-2.037733.76233-.338418-.01-.676946.0166-1.016502.008-.444189-.0915-.865673-.26835-1.230255-.53914-.539143-.48212-.965401-1.0699-1.321728-1.69574-.32769-.63654-.610344-1.29799-.732644-2.00807-.241143.60094-.42871 1.23735-.833686 1.75637-.256468.38471-.642484.65667-.926298 1.01649-.523665.30872-1.021275.69227-1.624525.83844-.508316.1472-1.039053.044-1.544917-.057.492815 1.60194 1.020092 3.20982 1.833526 4.6812l-.01752.0605c.407297.99042.8253 1.97955 1.270649 2.9545.360969.83006.778972 1.63884 1.293222 2.38453.409727.60803.851464 1.19465 1.320546 1.75869.390658.48805.777834.98087 1.207682 1.43693.336075.3064.681587.60326 1.041527.88115.185225.12592.370515.25416.554623.38355.518891.33247 1.060465.62945 1.618569.8907 2.461692 1.06874 5.219195 1.37875 7.872067 1.03313 1.921365-.22203 3.726385-1.05209 5.310515-2.13747 1.790811-1.22316 3.297676-2.80136 4.770212-4.37957.806318-.8289 1.372807-1.85377 1.856099-2.89399 1.11982-2.54012 1.54853-5.31297 1.889378-8.04661.05101-.55462.16749-1.10911.09633-1.66606-.157856-1.58646-.260102-3.20749-.812273-4.7168-.577064-1.48558-1.343141-2.93077-2.468895-4.07562-1.648257-1.76462-3.879644-2.86548-6.169095-3.54357-1.76861-.50482-3.661622-.88244-5.489193-.48702"
          id="path16481" transform="matrix(1, 0, 0, 1, 122.522163, 17.639925)"></path>
    <path style="fill:#fff;stroke:#000000;stroke-width:0.218942;stroke-miterlimit:4;stroke-dasharray:none;stroke-opacity:1"
          d="M13.285998 110.33651c-.542756.37646-1.103181.72672-1.653031 1.09364-.543917.48327-1.030799 1.0308-1.520024 1.56994-.3550355.5225-.2635617 1.18756-.251695 1.78488 0 2.21359.388315 4.44253 1.268307 6.48272.438255 1.00346.813433 2.03542 1.305088 3.01514 1.102021-.0844 2.236051-.22796 3.238343-.7244 1.010547-.50238 1.511748-1.59124 1.878672-2.59714-.258942-3.60408-.597338-7.20828-.895361-10.8112-1.111676-.18643-2.317037-.29092-3.370299.18643"
          id="path16479" transform="matrix(1, 0, 0, 1, 122.522163, 17.639925)"></path>
    <path style="fill:#fff;stroke:#000000;stroke-width:0.218942;stroke-miterlimit:4;stroke-dasharray:none;stroke-opacity:1"
          d="M180.23681 108.26187c.15786 2.03903.14494 4.08865.0771 6.13232 2.40479-.80155 4.78687-1.66851 7.18209-2.49728.7862-.29208 1.59963-.5154 2.36313-.86451-3.20505-.9334-6.41138-1.86203-9.62235-2.77053"
          id="path16477" transform="matrix(1, 0, 0, 1, 122.522163, 17.639925)"></path>
    <path style="fill:#fff;stroke:#000000;stroke-width:0.218942;stroke-miterlimit:4;stroke-dasharray:none;stroke-opacity:1"
          d="M21.130675 107.97456c-.545077.13533-1.106794.34911-1.502224.76233-.252987.43826-.415661.92269-.60441 1.39062-.545077 1.40843-.590223 2.93554-.663766 4.42472-.02978.55102.05452 1.09725.08911 1.64594.144939 1.73727.296841 3.47829.619889 5.19299.173402.86812.378791 1.74798.808661 2.53057.288587.52133.72439 1.00461 1.312182 1.18033.685178.20784 1.414341.004 2.042506-.29093 1.162536-.56765 2.176695-1.38468 3.186082-2.18146-.352715-.7742-.702978-1.55085-1.004614-2.34647-.680404-1.94511-1.358488-3.91641-1.558075-5.97919-.16968-1.48673-.03328-2.98894.238668-4.45439.10334-.75175.213687-1.50454.439416-2.2301-1.141102.0261-2.28713.1045-3.403338.35504"
          id="path16475" transform="matrix(1, 0, 0, 1, 122.522163, 17.639925)"></path>
    <path style="fill:#fff;stroke:#000000;stroke-width:0.218942;stroke-miterlimit:4;stroke-dasharray:none;stroke-opacity:1"
          d="M27.577628 105.75865c-1.050941.47618-1.795605 1.42507-2.33707 2.41304-.331302 2.65532-.545077 5.37709-.02846 8.02403.44883 2.36672 1.421456 4.5874 2.360781 6.79144.0867.30989.472586.29454.726733.37285.996359.21016 1.879832-.43464 2.66719-.95005-.679244-.4905-1.384674-.95481-1.976079-1.55214-1.05208-1.03674-1.862011-2.36079-2.111407-3.82972-.32769-1.87028-.156762-3.82262.420324-5.62763.339688-1.02009.917913-2.1256 2.01284-2.47483 1.90836-.462 3.88676-.1294 5.779619.25299-.41207-.95237-.465491-2.02949-.992746-2.93554-.181722-.28499-.300476-.70544-.693585-.74453-1.903303-.44651-4.01355-.60326-5.828094.26009"
          id="path16473" transform="matrix(1, 0, 0, 1, 122.522163, 17.639925)"></path>
    <path class="nocolor" style="fill:#fff; stroke-width: 0.218942; stroke-miterlimit: 4; stroke-dasharray: none; stroke-opacity: 1; stroke: rgb(0, 0, 0);"
          d="M46.536393 99.988464c.04401 1.290896.139028 2.580496.121074 3.872556.0451 3.37249-.337235 6.73803-.96308 10.04874-.15304.78013-.277881 1.56865-.516549 2.32866-.110346.29802-.08298.61745-.05692.92863 1.933255-.80039 3.839272-1.66374 5.766571-2.47484.16968-.0915.386016-.14255.499931-.30756.07488-3.35122.337236-6.70114.84194-10.01791.115164-.34678-.276742-.50237-.490516-.6817-1.745534-1.21697-3.436617-2.51147-5.202403-3.696576"
          id="path16471" transform="matrix(1, 0, 0, 1, 122.522163, 17.639925)"></path>
    <path style="fill:#fff;stroke:#000000;stroke-width:0.218942;stroke-miterlimit:4;stroke-dasharray:none;stroke-opacity:1"
          d="M177.30586 94.168566c.64249 1.904732 1.23026 3.829719 1.70411 5.784379 1.14603-.733819 2.22068-1.571107 3.33575-2.350081 1.58181-1.154269 3.19561-2.264546 4.75951-3.441394-3.26685-.0013-6.53381-.01554-9.79937.007"
          id="path16469" transform="matrix(1, 0, 0, 1, 122.522163, 17.639925)"></path>
    <path style="fill:#fff;stroke:#000000;stroke-width:0.218942;stroke-miterlimit:4;stroke-dasharray:none;stroke-opacity:1"
          d="M45.762062 94.160331c.359809 1.744501.56765 3.517382.713706 5.291554 1.956965 1.395395 3.890351 2.828715 5.869911 4.191985.508295-3.19446 1.18986-6.360289 2.063918-9.47399-2.882125-.02489-5.76541-.007-8.647535-.0096"
          id="path16467" transform="matrix(1, 0, 0, 1, 122.522163, 17.639925)"></path>
    <path style="fill:#fff;stroke:#000000;stroke-width:0.218942;stroke-miterlimit:4;stroke-dasharray:none;stroke-opacity:1"
          d="M35.038851 86.388008c-.295703.342011-.342009.805162-.453603 1.225484-.662605 2.716991-1.316956 5.475655-1.250507 8.291211.06415 2.616104.317093 5.223817.485722 7.833987-.0197.27544.229254.43349.388315.61746.55217.55694.977267 1.23735 1.211294 1.98794.328981 1.0201.534371 2.07464.805179 3.11125 1.027187.27428 1.990267.73266 2.917725 1.24329 1.313343.627 2.595859 1.39888 3.54357 2.52231.602111.67925 1.023574 1.48919 1.441577 2.28829.463149-2.13515.8609-4.2881 1.115047-6.46015.355058-3.1386.422777-6.30687.27313-9.460957-.108157-2.379755-.472564-4.742995-1.002293-7.063406-.192449-.610354-.480971-1.185102-.764784-1.757529-.959468-1.857255-2.099541-3.712189-3.81902-4.960251-.795612-.561716-1.73728-1.055703-2.739573-.97133-.934683.101283-1.6187.842319-2.151779 1.552401"
          id="path16465" transform="matrix(1, 0, 0, 1, 122.522163, 17.639925)"></path>
    <path style="fill:#fff;stroke:#000000;stroke-width:0.218942;stroke-miterlimit:4;stroke-dasharray:none;stroke-opacity:1"
          d="M168.1584 78.372367c1.88099 2.417813 3.63736 4.93174 5.20846 7.563326 1.91778-2.776466 3.82263-5.563512 5.71433-8.35662-3.64213.238671-7.28311.509469-10.92279.793294"
          id="path16463" transform="matrix(1, 0, 0, 1, 122.522163, 17.639925)"></path>
    <path style="fill:#fff;stroke:#000000;stroke-width:0.218942;stroke-miterlimit:4;stroke-dasharray:none;stroke-opacity:1"
          d="M53.882342 71.844492c2.111407 2.671965 4.223975 5.342643 6.370981 7.984806 1.023596-1.802684 2.208814-3.506802 3.458051-5.159702-3.271622-.955851-6.544404-1.914281-9.829032-2.825104"
          id="path16461" transform="matrix(1, 0, 0, 1, 122.522163, 17.639925)"></path>
    <path style="fill:#fff;stroke:#000000;stroke-width:0.218942;stroke-miterlimit:4;stroke-dasharray:none;stroke-opacity:1"
          d="M160.17708 67.881761c.42161.346784.77897.76001 1.13414 1.173234 1.69108 1.803846 3.1648 3.802369 4.49233 5.885397.24228-.332465.46315-.680409.68518-1.028356 2.5841-4.044652 5.1895-8.076273 7.76393-12.128152-4.69654 2.021102-9.39684 4.036398-14.07558 6.097877"
          id="path16459" transform="matrix(1, 0, 0, 1, 122.522163, 17.639925)"></path>
    <path style="fill:#fff;stroke:#000000;stroke-width:0.218942;stroke-miterlimit:4;stroke-dasharray:none;stroke-opacity:1"
          d="M68.511384 56.071882c1.690951 3.121958 3.404629 6.234501 5.140748 9.331561 1.796744-1.276574 3.681349-2.420134 5.583755-3.52925-3.572076-1.938146-7.135898-3.893968-10.724503-5.802311"
          id="path16457" transform="matrix(1, 0, 0, 1, 122.522163, 17.639925)"></path>
    <path style="fill:#fff;stroke:#000000;stroke-width:0.218942;stroke-miterlimit:4;stroke-dasharray:none;stroke-opacity:1"
          d="M112.77255 53.452296c-4.12659.238673-8.2164 1.005778-12.1626 2.233714-4.624179 1.439257-9.224623 3.012687-13.593471 5.120613-4.604057 2.19217-9.018072 4.828401-12.976032 8.052537-3.106475 2.543729-5.892484 5.481588-8.246172 8.735399-1.21957 1.66851-2.297836 3.434298-3.323884 5.226274-1.253987 2.234872-2.407087 4.537478-3.249027 6.961225-.928619 2.666032-1.739732 5.373477-2.471215 8.100015-.441737 2.592367-.728025 5.210797-1.036754 7.822117-.377609 3.52926-.647257 7.07528-.611504 10.6271.03919 6.07298 1.002292 12.24569 3.636203 17.76766 2.536504 5.28214 6.209468 9.90979 10.016731 14.32497 1.702971 1.90009 3.356002 3.8452 5.052887 5.75109 2.926001 3.31432 5.853272 6.64773 8.343469 10.30883 2.713497 3.97704 4.770212 8.39221 6.118126 13.01278 1.599609 5.36523 2.266986 10.94653 2.842912 16.49819.08561.62814.06634 1.27063.229123 1.88808.05101.23635.256468.386.41439.55463 2.369036 2.28117 4.814197 4.52083 7.610782 6.2737 2.139936 1.34665 4.481756 2.37383 6.927946 3.01632 2.86781.76955 5.84141 1.07465 8.8043 1.11982 3.6184-.0296 7.24145-.47863 10.73159-1.44997 4.7608-1.30031 9.27209-3.34761 13.70159-5.49346.19836-.0631.23041-.26124.23867-.43941.43941-6.42325.8431-12.85603 1.65071-19.24729.42638-3.09113 1.02836-6.18457 2.19333-9.09045.76956-1.9558 1.84307-3.78816 3.1648-5.42223 2.57688-3.18014 5.87339-5.65975 9.16049-8.05499.7933-.67099 1.41073-1.52118 2.11735-2.28002.88708-1.01649 1.77765-2.03427 2.56978-3.1279 2.6992-3.73593 5.22743-7.59777 7.54306-11.58308 2.64694-4.58973 4.9911-9.37065 6.71779-14.38561 1.73018-5.02088 2.82872-10.31115 2.72293-15.6396-.10685-3.32618-.67809-6.62876-1.60311-9.82309-1.35372-4.699006-3.40218-9.16527-5.70361-13.468849-2.32286-4.311837-4.93058-8.46112-7.58823-12.572214-.37167-.600938-.88347-1.093764-1.33243-1.632774-.74454-.840771-1.49513-1.673156-2.23732-2.515219-.22332-.257635-.49645-.459538-.78027-.641317-6.63469-4.406917-13.35132-8.785197-20.6854-11.952312-6.25939-2.733632-13.01045-4.429494-19.8517-4.608692-1.68374-.164884-3.37237-.0022-5.05623.03341"
          id="path16455" transform="matrix(1, 0, 0, 1, 122.522163, 17.639925)"></path>
    <path style="fill:#fff;stroke:#000000;stroke-width:0.218942;stroke-miterlimit:4;stroke-dasharray:none;stroke-opacity:1"
          d="M145.5492 51.186461c-1.58777 1.611487-3.19911 3.199109-4.77269 4.823756 1.36561.706599 2.69095 1.485571 4.02686 2.24442 1.20059.540302 2.41782 1.041514 3.59929 1.624518.50471-4.302418.90852-8.617869 1.37747-12.926091-1.43667 1.383393-2.81659 2.826264-4.23093 4.233397"
          id="path16453" transform="matrix(1, 0, 0, 1, 122.522163, 17.639925)"></path>
    <path style="fill:#fff;stroke:#000000;stroke-width:0.218942;stroke-miterlimit:4;stroke-dasharray:none;stroke-opacity:1"
          d="M90.643706 46.175278c.239851 3.202721.435803 6.409055.699518 9.610616 1.930912-.914438 3.881966-1.802684 5.925764-2.437939-2.189832-2.408267-4.395033-4.803501-6.625282-7.172677"
          id="path16451" transform="matrix(1, 0, 0, 1, 122.522163, 17.639925)"></path>
    <path style="fill:#fff;stroke:#000000;stroke-width:0.218942;stroke-miterlimit:4;stroke-dasharray:none;stroke-opacity:1"
          d="M134.12345 45.579242c-1.39657 2.059159-2.8406 4.087486-4.20863 6.16677 2.15541.541465 4.26553 1.25877 6.31397 2.118505-.0937-3.574403-.27904-7.148808-.41205-10.723342-.58882.795616-1.12564 1.62697-1.69329 2.438067"
          id="path16449" transform="matrix(1, 0, 0, 1, 122.522163, 17.639925)"></path>
    <path style="fill:#fff;stroke:#000000;stroke-width:0.218942;stroke-miterlimit:4;stroke-dasharray:none;stroke-opacity:1"
          d="M113.11999 41.070125c-1.05933 3.09461-2.02587 6.223796-3.0959 9.31492-.0263.124622-.0499.249381-.0701.374007 2.05685-.207841 4.12311-.345623 6.19051-.374007.0109-.06529.0368-.194814.0499-.258927l-.0915.01073c-.2624-.874054-.55101-1.740885-.83962-2.607846-.72555-2.149338-1.39176-4.318933-2.14339-6.458853"
          id="path16447" transform="matrix(1, 0, 0, 1, 122.522163, 17.639925)"></path>
    <path fill="#fff" stroke="#010100"
          d="M126.03067 159.81757c2.96597-.21716 5.8661-1.12248 8.4304-2.62359.22785.11465.45356.23812.68219.36047-.12509 1.53076-.6173 2.99918-1.16591 4.42504-.64833 1.6569-1.33671 3.31716-2.34969 4.7913-1.23752 1.81426-2.52549 3.62941-4.17152 5.10015-2.03631 1.85757-4.6037 3.09968-7.30073 3.63652-3.75476.78326-7.71777.56511-11.35979-.63955-2.19004-.7435-4.29245-1.93364-5.77164-3.74449-1.62362-1.96228-2.40067-4.45857-2.91752-6.91172-.509693-2.51976-.555289-5.11528-.334424-7.67021 8.454964 3.8523 17.400824 4.74329 26.258784 3.27465"
          id="path96-3"
          style="fill:#fff;stroke:#000000;stroke-width:0.280539;stroke-miterlimit:4;stroke-dasharray:none;stroke-opacity:1"
          transform="matrix(1, 0, 0, 1, 122.522163, 17.639925)"></path>
    <path fill="#fff" stroke="#010100"
          d="M130.38877 162.71789c-4.9964 2.51846-11.05976 3.75035-16.06337 3.65376-4.81272-.22549-9.10447-1.98581-13.33506-3.86516.48107 2.4725 1.18749 5.12615 2.28327 7.16069 1.08953 1.9772 3.08556 3.31825 5.22376 3.93069.55121-.4615.95883-1.06829 1.46176-1.57914.20162-.16807.37323-.37029.55958-.55385.37735-.35305.75619-.70426 1.14308-1.04549 3.7448-3.40031 9.30475-4.13208 13.19688-3.22085 2.71039.82033-.45619 4.61435-1.87058 6.43535 2.40347-1.48472 4.71264-3.21827 6.4766-5.44759 1.59585-2.03315 2.88857-4.32046 3.66063-6.79207-.91675.43173-1.80958.91312-2.73655 1.32366"
          id="path96-3-4"
          style="fill:#fff;stroke:#000000;stroke-width:0.280539;stroke-miterlimit:4;stroke-dasharray:none;stroke-opacity:1"
          transform="matrix(1, 0, 0, 1, 122.522163, 17.639925)"></path>
    <path fill="#fff" stroke="#010100"
          d="M121.1158 167.95207c-.33479.255-.66153.52-.96651.81031-.28376.26344-.56057.53543-.82646.81758-.25473.32176-.49513.65253-.71721.99771-.14588.34867-.28173.7014-.38926 1.06629-.0967.27428-.10616.69255-.48042.71544.0268-.48841.0871-.97307.18054-1.45287.4141-1.34905.97618-2.06574 2.29291-3.33142-.94175.0495-1.40223.19304-2.31668.4305-2.06654.60096-4.11137 1.64853-5.62087 2.98058-.95738.86797-1.85566 1.79876-2.67803 2.79437 2.24172.78361 8.54088 1.92607 12.15434.17814 1.14482-1.42184 2.31196-3.02032 3.09056-4.49295.16978-.40114.48191-.95847.0108-1.27662-.82105-.55136-1.87527-.52317-2.82433-.60626-.36023-.0638-.66121.13138-.90829.36814z"
          id="path96-3-4-7"
          style="fill:#fff;stroke:#000000;stroke-width:0.280539;stroke-miterlimit:4;stroke-dasharray:none;stroke-opacity:1"
          transform="matrix(1, 0, 0, 1, 122.522163, 17.639925)"></path>
    <path fill="#fff" stroke="#fff"
          d="M133.98134 158.04526c-.21533.66876-.38797 1.35256-.64291 2.00794-3.15345 1.85371-6.49657 4.00277-9.80924 4.72899-.047-1.25072-.18166-2.49685-.15975-3.74785 3.72564-.4373 7.45676-1.56159 10.6119-2.98908z"
          id="path98-5"
          style="fill:#fff;stroke:#000000;stroke-width:0.280539;stroke-miterlimit:4;stroke-dasharray:none;stroke-opacity:1"
          transform="matrix(1, 0, 0, 1, 122.522163, 17.639925)"></path>
    <path fill="#fff" stroke="#fff"
          d="M100.39212 157.41218c2.55997 1.74858 5.39017 2.54366 8.42795 2.95693-.13489 1.3475-.28286 2.6951-.4307 4.04138-2.81351-.63569-5.25296-1.72252-7.82785-3.00304-.0258-1.33259-.11637-2.66294-.16988-3.99533z"
          id="path100-5"
          style="fill:#fff;stroke:#000000;stroke-width:0.280539;stroke-miterlimit:4;stroke-dasharray:none;stroke-opacity:1"
          transform="matrix(1, 0, 0, 1, 122.522163, 17.639925)"></path>
    <path fill="#fff" stroke="#fff"
          d="M116.61545 161.17122c2.12028.16383 4.25517.11938 6.37068-.0877.0751 1.24608.15306 2.49229.2281 3.73837-2.31088.50292-4.69061.56243-7.04696.54497.14836-1.39826.29586-2.79795.44818-4.19562z"
          id="path102-9"
          style="fill:#fff;stroke:#000000;stroke-width:0.280539;stroke-miterlimit:4;stroke-dasharray:none;stroke-opacity:1"
          transform="matrix(1, 0, 0, 1, 122.522163, 17.639925)"></path>
    <path fill="#fff" stroke="#fff"
          d="M109.2331 160.42704c2.05993.29989 4.44045.58514 6.99208.72859l-.44591 4.17441c-2.34642-.0533-4.67637-.3602-6.97387-.82752.13124-1.36035.29029-2.71758.4263-4.07559z"
          id="path104-2"
          style="fill:#fff;stroke:#000000;stroke-width:0.280539;stroke-miterlimit:4;stroke-dasharray:none;stroke-opacity:1"
          transform="matrix(1, 0, 0, 1, 122.522163, 17.639925)"></path>
    <path class="st0"
          d="M94.10364 87.507185c-.782366 1.022383-.710553.905969-.276764 1.616993-4.974703 2.521522-11.288365 16.580102-4.466058 28.798362-1.462442-1.01981-3.424159-.25294-5.181099.15092-1.335215-4.92017-5.501827-7.24387-10.501205-6.12073 0-1.23018-.272582-2.46036-.897025-3.52899 1.972379-.18179 3.907669-.9895 5.317959-2.39815 2.085025 2.51982 5.014003 3.54099 8.019546 1.62096l.15304-2.43425c-2.345521 1.90824-5.34859 1.16139-6.789554-1.02107.696694-1.3547.930655-2.95512.499778-4.427695 3.224047-1.983186 3.524938-5.893249 2.135666-8.857013 4.471094-.115863 7.470309-2.922162 7.615051-7.315569 2.125463-.666379 3.805007-2.492376 4.284643-4.669995-.701817-.183386-1.406919-.351704-2.11872-.493039-.862235 3.837299-5.579179 4.245141-8.205821 1.246995-.567146.476224-1.115748.970984-1.661022 1.469155 1.390038 1.588637 3.369139 2.677493 5.499659 2.780172-1.14664 9.767393-16.944874 2.835066-13.75761-5.003283.898405-2.384103 3.690458-4.231276 6.847705-2.924826 10.523602-15.568502 21.600971.602558 13.481678 11.511051zm-22.604558-4.08273c1.518798 3.946152 4.131362 5.835973 7.589873 7.071473 3.090098 2.456098 1.754663 8.077412-2.472113 7.891064 2.394805 2.737608 1.614059 5.160368-.91557 6.686138-5.487377 3.22391-6.961861-1.77262-13.481547 1.6442-4.109424-4.9385.281581-12.299944 6.352919-12.182457-3.187067-3.396113-3.288109-10.486963 2.926438-11.110418zm-.713552 31.845375c5.377774-2.3709 9.964819-1.91129 11.362871 3.77139-1.647536 1.21508-2.544539 3.30854-2.266943 5.33979-5.973121 3.99743-4.129173 12.56912 3.608135 13.34872.385337 2.84409 2.512486 5.22201 5.152965 6.23346.299534-.67313.531787-1.37152.801064-2.0548-4.817788-1.96885-5.463819-8.3708.280924-9.90721-.163112-.7152-.319808-1.43211-.479636-2.1474-2.832294.62753-5.019892 2.49769-5.72854 5.64942-6.082154-.76592-6.715574-7.05095-1.095584-9.98632-1.329917-5.66273 3.142994-6.80192 6.679404-3.49366.769098-.64577 1.496772-1.79184 2.064597-1.22416 2.057219 2.05665 2.982203 3.31273 6.525379 4.20464 3.280884.82587 1.422288 6.5472-2.154604 10.35807 8.783298 9.50221-1.103882 21.17796-9.535256 12.56277-6.434058 2.59248-10.349456-1.13777-9.483105-7.6841-6.725556 1.92154-10.844767-3.39213-8.862164-10.0132-6.27931-1.97664-8.603199-7.52682-8.316868-13.60451.861295-12.54309 15.826324-11.20578 11.447251-1.3529z"
          id="path4899-7-4"
          style="fill:#fff;stroke:#000000;stroke-width:0.218942;stroke-linejoin:miter;stroke-miterlimit:4;stroke-dasharray:none;stroke-opacity:1"
          transform="matrix(1, 0, 0, 1, 122.522163, 17.639925)"></path>
    <path class="st0"
          d="M151.73316 73.731195c3.38043-1.398794 6.38447.571418 7.3526 3.140465 3.42427 8.421454-13.54245 15.845814-14.77196 5.372163 2.28761-.110281 4.41263-1.279383 5.90514-2.985146-.5855-.534903-1.17456-1.066134-1.78348-1.577472-2.81953 3.218277-7.88481 2.782098-8.81082-1.338937-.76437.151749-1.52149.332459-2.27494.529392.515 2.338272 2.31838 4.298795 4.60056 5.014301.15523 4.717427 3.37616 7.730415 8.1765 7.854936-1.47755 3.152089-1.19833 7.362456 2.29306 9.510021-.46262 1.581142-.21127 3.299562.53663 4.754132-1.5426 2.33644-4.43707 2.98688-6.96225.93244.43188-3.01401-.92337-6.19608-3.46578-7.892875-.45181.652282-.8981 1.31007-1.34987 1.964195 4.00779 2.76721 2.85012 8.5474-.86922 10.14251.30543.72826.59277 1.46366.88899 2.19722 1.80877-.7409 3.2544-2.20629 4.09279-3.95724 3.18372 2.03375 6.87866 1.32893 9.15053-1.41664 1.51424 1.5124 3.59224 2.37976 5.71004 2.57496-.67036 1.14741-.96315 2.46829-.96315 3.78918-5.36258-1.20472-9.84043 1.28387-11.27542 6.57199-1.88651-.43364-3.86688.0542-5.43711 1.14925-2.16115-1.07338-4.77406-.95773-6.97666-.0632-.80989-1.28257-1.33427-2.76579-1.60009-4.16083.92584-2.29416 1.77949-5.65765 1.81126-9.11306.74046-1.16854 1.70407-2.17782 2.79017-3.08816-5.7597-4.885496-6.20984-12.151675-1.24317-17.543829-7.74278-10.402668.53918-22.815528 8.5686-18.391312 2.50818 1.389423 4.32784 3.695154 5.90705 6.031585zm12.93798 19.905553c6.51701-.126132 11.23555 7.775802 6.82134 13.080642-1.60053-.8388-3.84168-2.09483-8.04461-.85288-4.7664 1.42552-12.1369-2.69255-7.41396-8.091634-4.53835.200003-5.97292-5.835266-2.65442-8.472853 3.5738-1.27672 6.46429-3.214809 8.14946-7.592839 6.60595.662585 6.60177 8.242776 3.14219 11.929564zm.98473 38.323992c2.12522 7.09708-2.27798 12.81925-9.51548 10.75145.93037 7.0305-3.31252 11.01865-10.1823 8.25063-9.11239 9.31094-19.61675-3.34301-10.2383-13.48899-8.01054-8.53465.0933-20.04546 6.90986-14.32197 3.75041-3.50853 8.61137-2.37774 7.17187 3.75124 6.01115 3.13964 5.37929 9.89704-1.17639 10.72258-.7559-3.36176-3.08425-5.38653-6.15086-6.06594-.17165.76793-.33962 1.5377-.51504 2.30573 6.15885 1.64703 5.48094 8.52109.30164 10.63764.2892.73367.53846 1.48355.86011 2.2063 2.8351-1.08602 5.11914-3.63926 5.5329-6.69304 8.31527-.83779 10.28526-10.04236 3.87414-14.33289.29818-2.18101-.66494-4.42892-2.43406-5.73349 1.50549-6.11969 6.43288-6.59228 12.20065-4.04944-3.79876-8.54719 5.30178-10.06103 9.18476-6.2539 4.90409 4.69846 4.94884 18.92315-5.82361 22.31409z"
          id="path4901-0-8"
          style="fill:#fff;stroke:#000000;stroke-width:0.218942;stroke-miterlimit:4;stroke-dasharray:none;stroke-opacity:1"
          transform="matrix(1, 0, 0, 1, 122.522163, 17.639925)"></path>
    <path stroke="#000"
          d="M93.826854 89.124189c3.698076-2.894261 9.234716-2.882534 12.924996.02146 2.38716 1.745155 4.13097 4.240233 5.34736 6.908908 1.80518-4.414206 5.54319-8.775932 10.65515-8.92282 4.85641-.115251 8.70743 3.820599 10.60927 7.951317 3.39112 7.399466 3.19221 16.514656-.88032 23.609386-2.17435 3.83807-6.466 7.06683-11.07995 6.17526-4.46808-.83186-7.58869-4.71094-9.26493-8.70019-2.04161 4.84866-6.51047 9.38534-12.10916 9.22345-5.56534-.12361-9.83608-4.75264-11.781989-9.6141-3.116611-7.75824-2.407109-17.334246 2.828791-24.023669.802705-.985953 1.720684-1.881851 2.750782-2.629037z"
          id="path60-04-8"
          style="fill:#fff;stroke:#000000;stroke-width:0.218942;stroke-miterlimit:4;stroke-dasharray:none;stroke-opacity:1"
          transform="matrix(1, 0, 0, 1, 122.522163, 17.639925)"></path>
    <path stroke="#000"
          d="M99.01393 88.30209c-5.249277.848852-8.714925 5.791197-10.166749 10.56445-2.128878 7.10225-1.21887 15.51758 3.67338 21.30472 2.655936 3.26918 7.424681 4.9767 11.384149 3.13423 3.99269-1.85252 6.91249-5.84549 7.55351-10.19547-.0471-1.34518 1.20897-2.05447 1.30032-.28276.54161 4.00758 2.96199 7.82187 6.47703 9.86628 3.28095 1.94537 7.58298.79397 10.0291-1.95656 4.79887-5.19173 5.87166-12.90061 4.67473-19.65598-.97164-4.916705-3.46722-10.29476-8.42165-12.230004-3.81013-1.475885-7.94075.816678-10.0878 3.978709-1.53344 1.860312-2.07436 4.277762-3.33074 6.280742-.89028-1.678677-1.10953-2.460224-2.09577-4.295526-2.15244-3.895273-6.28472-7.249815-10.98951-6.512831z"
          id="path60-04-8-3"
          style="fill:#fff;stroke:#000000;stroke-width:0.218942;stroke-miterlimit:4;stroke-dasharray:none;stroke-opacity:1"
          transform="matrix(1, 0, 0, 1, 122.522163, 17.639925)"></path>
    <path stroke="#000"
          d="M96.141329 96.910704c.794452-.115207 1.638844.0035 2.327502.432191.995199.622225 1.670829 1.769398 1.606729 2.958115.0131 1.64-1.38586 3.14221-3.021091 3.25265-.973765.0963-1.980699-.24706-2.670671-.94411-1.280174-1.17091-1.311023-3.387983-.14494-4.646753.496428-.543785 1.178015-.923725 1.902406-1.052093z"
          id="path66-9"
          style="fill:#fff;stroke:#000000;stroke-width:0.218942;stroke-miterlimit:4;stroke-dasharray:none;stroke-opacity:1"
          transform="matrix(1, 0, 0, 1, 122.522163, 17.639925)"></path>
    <path stroke="#000"
          d="M116.62005 97.66478c1.28366-1.281346 3.65517-1.189877 4.82013.212615 1.23387 1.315793 1.06874 3.618395-.31943 4.760795-4.10514 2.53313-6.77171-2.27449-4.50072-4.973405z"
          id="path68-6"
          style="fill:#fff;stroke:#000000;stroke-width:0.218942;stroke-miterlimit:4;stroke-dasharray:none;stroke-opacity:1"
          transform="matrix(1, 0, 0, 1, 122.522163, 17.639925)"></path>
</svg>
